<?xml version="1.0" encoding="UTF-8" standalone="no"?>
<svg
   xmlns:dc="http://purl.org/dc/elements/1.1/"
   xmlns:cc="http://creativecommons.org/ns#"
   xmlns:rdf="http://www.w3.org/1999/02/22-rdf-syntax-ns#"
   xmlns:svg="http://www.w3.org/2000/svg"
   xmlns="http://www.w3.org/2000/svg"
   xmlns:sodipodi="http://sodipodi.sourceforge.net/DTD/sodipodi-0.dtd"
   xmlns:inkscape="http://www.inkscape.org/namespaces/inkscape"
   version="1.1"
   width="316"
   height="375"
   viewBox="55.74 100.57 316 375"
   xml:space="preserve"
   id="svg71"
   sodipodi:docname="built.svg"><metadata
   id="metadata75"><rdf:RDF><cc:Work
       rdf:about=""><dc:format>image/svg+xml</dc:format><dc:type
         rdf:resource="http://purl.org/dc/dcmitype/StillImage" /></cc:Work></rdf:RDF></metadata><sodipodi:namedview
   pagecolor="#ffffff"
   bordercolor="#666666"
   borderopacity="1"
   objecttolerance="10"
   gridtolerance="10"
   guidetolerance="10"
   inkscape:pageopacity="0"
   inkscape:pageshadow="2"
   inkscape:window-width="640"
   inkscape:window-height="480"
   id="namedview73"
   fit-margin-top="17"
   fit-margin-left="17"
   fit-margin-right="17"
   fit-margin-bottom="17" />
<desc
   id="desc2">Created with Fabric.js 5.3.0</desc>
<defs
   id="defs4">
</defs>
<g
   transform="matrix(0.68,0,0,0.68,213.5,287.91)"
   id="main_icon">
<g
   id="g68">
		<g
   transform="matrix(0.89,0,0,0.89,-77.61,69.9)"
   id="g10">
<path
   style="opacity:1;fill:#db3939;fill-rule:nonzero;stroke:none;stroke-width:1;stroke-linecap:butt;stroke-linejoin:miter;stroke-miterlimit:4;stroke-dasharray:none;stroke-dashoffset:0"
   transform="translate(-146.58,-361.45)"
   d="m 238.5,494.7 c -4.9,-12.3 -11.2,-24.2 -15.4,-36.7 -7.5,-22.3 -9.7,-45.1 -3.7,-68.3 1.4,-5.3 3.3,-10.3 8.7,-12.8 8.5,-3.9 12.2,-11 13.7,-20.1 -19.8,4 -23.3,20.8 -29.2,36 -3.5,-8.3 -4.4,-16.4 0.7,-24.3 2.1,-3.4 4.5,-6.6 7.2,-9.5 13.8,-13.9 19.3,-30.6 18.1,-50 -0.5,-8.4 -0.1,-16.8 -0.1,-25.5 -4.2,3 -8.1,5.9 -12.1,8.8 -22.6,16.2 -31.4,38.1 -27,65.3 2,12.3 3.9,24.8 7.9,36.5 3.6,10.5 1.3,21 3,31.5 -0.6,-0.2 -1.2,-0.7 -1.5,-1.3 -5,-11.9 -11,-23.6 -14.8,-35.9 -8.1,-25.9 -13.1,-52.3 -2.4,-79.8 -1.7,1.2 -2.7,2 -3.7,2.7 -8.4,6.5 -14.8,14.8 -20,24 -1.2,2.1 -1.8,4.5 -1.6,6.9 3,21.5 7.9,42.5 16.4,62.5 0.6,1.3 1,2.7 1.6,4.1 -9.4,-12.7 -18.2,-25.7 -27.2,-38.4 -7.8,-11 -13.9,-23.1 -17.9,-36 -1.5,-4.8 -1,-8 4.3,-10.3 2.5,-1.1 5.2,-4.2 5.7,-6.8 0.9,-4.8 0.3,-10 0.3,-15.2 -10.6,4 -13.7,12.1 -13.7,22.3 -1.7,-9.9 -2.8,-19.9 -3.5,-30 -0.1,-1.2 1.9,-3 3.4,-3.7 9.5,-4.2 11.3,-7.1 10.2,-18.4 -7.6,2.3 -14.5,4.9 -15,14.7 -0.1,-5.4 -3.1,-10.6 1.2,-15.6 3.6,-4.2 2.7,-9.9 -1.4,-12.7 -3.6,-2.3 -8.5,-1.3 -10.8,2.3 0,0 -0.1,0.1 -0.1,0.1 -2.7,4.3 -1.2,9.5 3.5,12.4 0.9,0.6 2.3,1.2 2.4,2 0.6,3.9 0.9,7.9 1.2,11.9 l -8.7,-3.8 -1.1,1.3 c 1.5,2.5 2.5,5.9 4.8,7.2 7.3,4.3 5.2,11.1 6.4,18.6 -3.3,-3.7 -5.5,-6.4 -7.9,-8.8 -12.3,-12.6 -17.3,-27.1 -12.8,-44.7 3.4,-13 2.5,-26.8 -2.7,-39.2 -3.3,-8.1 -7.4,-16 -10.5,-24.2 -4.4,-11.6 -6.1,-23.4 0.4,-35.4 -1.6,1.5 -3.4,2.8 -4.9,4.4 C 74.1,179.4 66,199.6 64,222 c -2.7,30.2 9.5,52.9 36.1,67.8 2.4,1.2 4.5,2.8 6.3,4.8 5.5,6 10.4,12.5 16,18.5 8.9,9.4 10.1,21.8 14,33.2 -6.4,-5.6 -12.9,-10.6 -16.4,-19 -4.6,-11.2 -13.4,-20.3 -24.4,-25.3 -9.3,-4.4 -19,-8 -28.7,-12 0.4,2.5 0.7,4.9 1.1,7.4 4.6,26.6 25.2,48 51.5,44.8 1.6,0 3.2,0.6 4.4,1.7 7.8,8 16,15.6 23,24.2 17.9,22.3 31.8,47.1 45.5,72 1.9,3.4 3.8,6.9 5.7,10.5 -0.7,0.1 -1.1,0.3 -1.3,0.2 -5.6,-3.3 -11,-7 -16.8,-9.8 -5.6,-2.7 -9.1,-6 -8.8,-12.7 0.1,-2.9 -1,-5.9 -2,-8.7 -12.1,-33.2 -35.4,-54.5 -69.5,-63.6 -17,-4.6 -34.8,-5.8 -50.8,-14 -0.2,-0.1 -0.5,0.3 -0.9,0.4 3.5,12.7 10.7,23.5 17.8,34.4 18.1,28.1 42.6,47.5 75.7,55.5 24.4,5.9 43.9,20 58.9,39.7 19.5,25.7 24.2,55.6 21.8,87 -0.1,1.5 -0.5,3 -0.9,5.5 18,-12.9 26.4,-29 23.2,-50 -1.3,-6.8 -3.3,-13.4 -6,-19.8 z M 83.4,224.3 c 3.5,14.9 6.9,29.7 10.4,44.6 -7.3,-13.8 -10.9,-29.1 -10.4,-44.6 z m 4.3,147.6 c 9.8,1.4 35.9,17.3 42.8,26.1 z"
   stroke-linecap="round"
   id="path8" />
</g>
		<g
   transform="matrix(0.89,0,0,0.89,118.06,-49.23)"
   id="g14">
<path
   style="opacity:1;fill:#db3939;fill-rule:nonzero;stroke:none;stroke-width:1;stroke-linecap:butt;stroke-linejoin:miter;stroke-miterlimit:4;stroke-dasharray:none;stroke-dashoffset:0"
   transform="translate(-366.43,-227.6)"
   d="M 443.7,180.1 C 408.2,110.3 352.2,67.4 275.9,53.4 c -3.5,15.4 -6.8,29.8 -10.1,44.3 53,7.9 93.5,36.9 123.5,81.6 30.2,45 36.6,94.6 26.7,147.2 h 19.3 c -4.3,22.1 -14.3,42.8 -29,59.9 l 26.8,15.4 c 34.3,-51.2 50.4,-143.3 10.6,-221.7 z"
   stroke-linecap="round"
   id="path12" />
</g>
		<g
   transform="matrix(0.89,0,0,0.89,-143.76,-24.42)"
   id="g18">
<path
   style="opacity:1;fill:#db3939;fill-rule:nonzero;stroke:none;stroke-width:1;stroke-linecap:butt;stroke-linejoin:miter;stroke-miterlimit:4;stroke-dasharray:none;stroke-dashoffset:0"
   transform="translate(-72.25,-255.47)"
   d="m 141,440.5 c -2.6,-0.6 -4.4,-1.1 -6.1,-1.5 -14.6,-3.3 -28.3,-8.7 -40.3,-17.7 -30.1,-22.6 -51.5,-51.7 -63,-87.7 -0.7,-2.1 -1,-4.4 -1.7,-7.2 h 16.2 c -0.3,-1.7 -0.4,-2.5 -0.6,-3.3 -10.2,-40.1 -6.9,-79.7 6.7,-118.3 13.5,-38.6 39,-68 72.4,-91 3.1,-2.1 4.6,-3.9 4.6,-8.1 0,-6.5 1.1,-12.9 3.3,-19 3.2,-8.1 8,-15.6 12,-23.2 -1.6,0.6 -4,1.4 -6.2,2.4 -36.6,16.8 -67.1,41.2 -90.7,73.8 -46.2,64 -58.7,134.3 -37.8,210.2 7.4,27.1 19.7,51.8 39.8,72.2 25.2,25.5 54.8,30.7 88.1,20.3 1.1,-0.5 2.2,-1.2 3.3,-1.9 z"
   stroke-linecap="round"
   id="path16" />
</g>
		<g
   transform="matrix(0.89,0,0,0.89,-18.96,-70.36)"
   id="g22">
<path
   style="opacity:1;fill:#db3939;fill-rule:nonzero;stroke:none;stroke-width:1;stroke-linecap:butt;stroke-linejoin:miter;stroke-miterlimit:4;stroke-dasharray:none;stroke-dashoffset:0"
   transform="translate(-212.48,-203.85)"
   d="m 144.5,150.3 c 1.1,2.5 1.1,5.5 1.1,8.3 0.1,9 -0.4,18 0,26.9 0.9,18.8 2.2,37.7 3.4,56.7 -5.1,-3.4 -7.1,-7.5 -6.5,-13.5 0.6,-5.6 0.4,-11.3 -0.6,-16.9 -3,-16.4 -14.8,-25.6 -28,-33.2 -0.5,6 -0.9,11.9 -1.4,17.8 -1.6,18 4.7,32 21,40.6 9.8,5.2 15.8,12.9 18.1,23.9 1.7,8.1 4.3,16.1 6.2,24.1 1,4.3 1.8,8.6 2.3,13 1.3,12 2.4,23.9 3.6,35.9 l 1.3,-0.1 c 1.4,-2.4 2.4,-5.1 4.2,-7.2 2.5,-2.9 2.6,-5.6 1.6,-9.1 -3.1,-11.1 -3.8,-22.7 -1.9,-34.1 4.8,-29 18,-53.6 38,-74.9 9.8,-10.5 21.3,-16.6 35.7,-17.4 25.8,-1.5 43.8,-14 53.4,-38.2 3.8,-9.5 7.1,-19.2 16.7,-25 -20.4,0.4 -40.5,0.8 -58.8,10.7 -12.7,6.9 -21.5,17.3 -26.8,32 16.5,-10.5 33.4,-17 51.7,-19.7 -0.9,0.7 -1.9,1.2 -3,1.6 -16.7,5.8 -33.5,11 -48.4,20.9 -1.9,1.5 -3.6,3.3 -4.9,5.3 -4.8,6.5 -8.8,13.9 -14.4,19.5 -18.9,18.7 -33.8,39.8 -41.1,65.6 -1.2,4.3 -2.5,8.5 -4,13.9 -7.5,-23.4 -10.5,-48.1 -8.8,-72.6 1.1,-17.7 7.1,-34.8 17.2,-49.4 6.5,-9.4 14.7,-17.1 25.9,-20 6.2,-1.6 9.2,-5.4 12.3,-10.7 -9.5,1.4 -18.2,2.9 -25,10 1.2,-2.9 3.2,-5 4.6,-7.5 3.1,-5.6 7.7,-8.2 14.1,-8.8 6.1,-0.6 12.2,-1.9 18,-3.8 19.6,-6.6 27.2,-23.4 34.1,-41.1 -6,1.2 -11.9,2.3 -17.7,3.5 -13.8,2.9 -26.2,10.6 -35,21.7 -4.4,5.6 -8.6,11.4 -12.4,17.5 -10.6,16.3 -21.3,32.5 -31.4,49.1 -3.3,5.4 -5,11.7 -7.6,17.9 0,-10 -0.1,-19.6 0.1,-29.3 0,-1.2 1.5,-2.5 2.5,-3.5 13.4,-12.4 18.5,-27.2 13.7,-45.1 -2.1,-7.7 -4.2,-15.6 -0.1,-24.8 -9.1,8.2 -15.6,16.5 -20.3,26.2 -6.8,14 -9.1,28.4 -2.7,43.3 z"
   stroke-linecap="round"
   id="path20" />
</g>
		<g
   transform="matrix(0.89,0,0,0.89,70.25,45.47)"
   id="g26">
<path
   style="opacity:1;fill:#db3939;fill-rule:nonzero;stroke:none;stroke-width:1;stroke-linecap:butt;stroke-linejoin:miter;stroke-miterlimit:4;stroke-dasharray:none;stroke-dashoffset:0"
   transform="translate(-312.72,-334)"
   d="m 325.9,346.6 c 17.4,3.6 33.1,0 46.1,-12.7 6.3,-6.2 12.8,-12 22.3,-14.1 -0.6,-0.6 -1.2,-1.1 -1.9,-1.6 -22,-12 -50.3,-13.3 -71.9,7.9 -7.8,7.6 -16.9,12.8 -27,16.5 -1.1,0.3 -2.1,0.5 -3.2,0.6 2.7,-3 5,-5.6 7.4,-8 4.1,-4 6.9,-9 12.8,-11.4 4.3,-1.7 5.1,-9.2 2.5,-13.3 -2.5,-4 -8.3,-5.7 -12.3,-3.8 -4,1.9 -6.2,8 -4.2,12.6 0.9,1.7 2,3.3 3.2,4.7 -11.8,15.6 -27.2,27.2 -43.2,39.1 1,-2.1 1.8,-3.7 2.5,-5.3 4.9,-10.9 9.6,-21.9 14.6,-32.8 2,-4.3 3.9,-8.9 6.8,-12.5 12.6,-15.8 17.4,-33.5 13.9,-53.3 -1.2,-6.8 -3.4,-13.5 -5.4,-20.2 -3,-10.1 -3.3,-20 2.3,-29.4 0.5,-0.9 0.9,-1.8 1.8,-3.6 -1.7,1 -2.4,1.4 -3.1,1.9 -23,15.3 -37.2,50.4 -31.6,78.7 1.2,6.3 3.2,12.6 5,18.8 3.4,11.6 3.1,22.9 -2.3,34 -4.2,8.7 -8.2,17.5 -12.4,26.1 -11.6,23.6 -19.5,48.2 -17,74.9 0.7,7.3 2.4,14.4 3.7,21.6 l 1.5,-0.2 c 0.1,-1.1 0.2,-2.2 0.4,-3.2 2.1,-7.1 3.6,-14.5 6.5,-21.3 4.8,-10.9 14.5,-17.1 24.6,-22.4 11.7,-5.9 20.8,-15.9 25.7,-28.1 3.6,-8.9 7.4,-17.7 11,-26.5 -4.4,1.3 -8.4,2.8 -12.5,3.7 -20.3,4.6 -33.9,16.9 -41.2,36.2 -3,8.1 -5.3,16.4 -8,24.7 -1,3 -2.1,5.9 -3.2,8.8 -0.9,-1 -1.4,-2.3 -1.4,-3.6 -4.6,-56.1 45.9,-92 87.2,-83.5 z m 32.6,-17.6 -42.8,8.4 c 4.9,-5.1 25.9,-9.8 42.8,-8.4 z"
   stroke-linecap="round"
   id="path24" />
</g>
		<g
   transform="matrix(0.89,0,0,0.89,79.13,169.12)"
   id="g30">
<path
   style="opacity:1;fill:#db3939;fill-rule:nonzero;stroke:none;stroke-width:1;stroke-linecap:butt;stroke-linejoin:miter;stroke-miterlimit:4;stroke-dasharray:none;stroke-dashoffset:0"
   transform="translate(-322.7,-472.95)"
   d="m 321.4,440.5 c -32.6,4.3 -51.6,31.2 -59.7,63.4 36.8,6.8 68.7,-1.2 93.6,-30.6 8.8,-10.5 17.1,-21.5 28.4,-28.3 -13.2,-1.6 -26.7,-3.7 -40.4,-4.9 -7.3,-0.6 -14.7,-0.5 -21.9,0.4 z m -24.5,33.8 c -0.3,-0.6 -0.7,-1.2 -1,-1.8 l 27.6,-13.6 c 0.3,0.6 0.6,1.2 0.9,1.8 z"
   stroke-linecap="round"
   id="path28" />
</g>
		<g
   transform="matrix(0.89,0,0,0.89,89.19,112.14)"
   id="g34">
<path
   style="opacity:1;fill:#db3939;fill-rule:nonzero;stroke:none;stroke-width:1;stroke-linecap:butt;stroke-linejoin:miter;stroke-miterlimit:4;stroke-dasharray:none;stroke-dashoffset:0"
   transform="translate(-334.02,-408.93)"
   d="m 370.6,399.1 c 12.4,-10.9 19.2,-24.6 26.1,-38.1 1.1,0.1 1.9,0.3 2.7,0.3 6.8,0.3 12.6,-3.2 14.6,-9.1 1.8,-5.6 -0.4,-11.7 -5.3,-14.9 -5.2,-3.5 -11.4,-3.2 -15.7,0.6 -5.2,4.6 -6,10.3 -2.8,17.2 0.6,1.4 0.8,3.7 0,4.9 -7.2,11.1 -14.1,22.5 -22.3,32.9 -8.6,10.9 -21,15.8 -34.7,17.5 1.3,-1.2 3,-2 4.3,-3.2 3.6,-3.4 7.8,-6.4 10.2,-10.5 5.2,-8.9 9.4,-18.3 13.8,-27.2 -1,0.1 -3,0.2 -4.9,0.4 -22.1,1.5 -34.4,11.7 -40,33.1 -0.6,2.4 -1,4.9 -1.6,7.3 -0.4,1.4 -0.6,3.4 -1.6,4 -6.3,4 -12.8,7.6 -19.2,11.3 l -1.8,-1.6 c 11.6,-6.5 13.9,-16.6 12.2,-28.1 -8.9,5 -15.5,11.1 -14.6,23 0.4,5.4 -2.4,10.3 -8.3,13.4 -15.2,7.9 -26.2,20.2 -33.9,35.5 -2.6,5.1 -4,10 0.2,15.2 0.6,-1 1.1,-2 1.6,-3 4.3,-7.5 7.8,-15.5 12.9,-22.4 14.6,-19.4 34,-29.3 58.9,-26.6 7.1,0.8 14.2,1.6 21.3,2.4 4.4,0.5 8.1,-1 11.6,-3.1 -0.1,-0.7 -0.1,-1.3 -0.2,-2 l -44.3,-4.1 c 8.3,-3.2 16.9,-6 25.6,-8.1 10.7,-2.7 21.3,-4.7 31.2,3.7 3.5,3 8.7,4 14.1,1.8 -5.6,-8.1 -13.3,-11.7 -22.5,-13.5 6.3,-1.5 12.7,-2.4 19.2,-2.7 1.2,-0.1 2.7,1.2 3.6,2.3 10.6,13.8 25.2,17.4 41.7,16.9 -11.6,-20.8 -28.3,-30.1 -52.1,-25.5 z"
   stroke-linecap="round"
   id="path32" />
</g>
		<g
   transform="matrix(0.89,0,0,0.89,105.76,-37.48)"
   id="g38">
<path
   style="opacity:1;fill:#db3939;fill-rule:nonzero;stroke:none;stroke-width:1;stroke-linecap:butt;stroke-linejoin:miter;stroke-miterlimit:4;stroke-dasharray:none;stroke-dashoffset:0"
   transform="translate(-352.61,-240.8)"
   d="m 343,219.2 c -2,-9.5 -4.2,-19 -6.5,-29 -3.5,4.3 -7.2,8.5 -10.5,13 -14.2,18.9 -17.5,39.3 -8.8,61.6 2.9,7.5 4.8,15.5 6.7,23.5 1.4,6 1.5,12.1 -3.2,16.9 -3.1,3.1 -2.1,5.4 0.8,7.9 12.9,-13.7 21.6,-29.8 30.2,-46.2 5.7,-10.9 9.8,-22.7 19.7,-30.9 1.7,-1.4 3.7,-2.4 5.9,-2.8 9.1,-1.2 14.1,-6 14.9,-15.2 0.2,-2.8 0.4,-5.6 0.6,-8.5 -9.9,2 -17.5,5.9 -19.4,17.1 -0.6,3.2 -3.8,6 -5.9,9 l -1.2,-0.7 c 0.1,-0.8 0.2,-1.6 0.4,-2.3 3.7,-8.7 3.6,-18.2 7,-27.2 4.8,-12.6 -4.8,-30.4 -17.3,-36.9 -0.8,5.8 -1.6,11.7 -2.4,17.6 -1.1,8.8 1.5,16 8.9,21.3 1.2,0.9 2.5,2.9 2.4,4.2 -0.6,5.9 -1.8,11.8 -2.8,18.4 -3.9,-5.5 -7.3,-10.2 -11.2,-15.7 -1.9,8.5 -0.9,14.9 5.9,19.1 2.7,1.7 2,3.5 1.1,5.5 -5,10.5 -9.8,21.1 -15,31.5 -3.7,7.3 -8.1,14.2 -12.7,22.1 -1.3,-5.8 -1.9,-10.6 -3.5,-15 -2.2,-6.1 -0.9,-10.5 3.7,-15 11.7,-12.1 15.6,-26.8 12.2,-43.3 z"
   stroke-linecap="round"
   id="path36" />
</g>
		<g
   transform="matrix(0.89,0,0,0.89,-11.91,-16.74)"
   id="g42">
<path
   style="opacity:1;fill:#db3939;fill-rule:nonzero;stroke:none;stroke-width:1;stroke-linecap:butt;stroke-linejoin:miter;stroke-miterlimit:4;stroke-dasharray:none;stroke-dashoffset:0"
   transform="translate(-220.42,-264.1)"
   d="m 179.7,281 c -1.4,10.8 -2,21.6 -0.9,31.8 14.1,-11.7 28.1,-23.3 42.2,-34.9 9.4,-7.5 16.9,-17.1 22,-28 5.5,-11.9 8.8,-25 19.6,-34.5 -47.2,1.6 -69.3,21.4 -75.9,46.1 l 30.9,-12.1 c 0.2,0.5 0.4,1 0.6,1.5 -7.8,3.5 -15.6,7.2 -23.6,10.4 -9.2,3.6 -13.6,10.1 -14.9,19.7 z"
   stroke-linecap="round"
   id="path40" />
</g>
		<g
   transform="matrix(0.89,0,0,0.89,-35.21,-80.87)"
   id="g46">
<path
   style="opacity:1;fill:#db3939;fill-rule:nonzero;stroke:none;stroke-width:1;stroke-linecap:butt;stroke-linejoin:miter;stroke-miterlimit:4;stroke-dasharray:none;stroke-dashoffset:0"
   transform="translate(-194.22,-192.05)"
   d="m 165.7,191.1 c -4.1,15.8 -3.4,32 -1.8,48.1 0.2,2.4 0.5,4.8 1,8.6 0.4,-0.9 0.8,-1.9 1.1,-2.9 2.1,-16.5 10,-29.6 22.8,-40.1 12.6,-10.1 21.3,-24.2 24.6,-40 2.3,-10 4.8,-20.1 12.4,-28.5 -2.3,0.7 -4.7,1.4 -7,2 -27.6,7.7 -45.8,24.8 -53.1,52.8 z"
   stroke-linecap="round"
   id="path44" />
</g>
		<g
   transform="matrix(0.89,0,0,0.89,-62.51,177.33)"
   id="g50">
<path
   style="opacity:1;fill:#db3939;fill-rule:nonzero;stroke:none;stroke-width:1;stroke-linecap:butt;stroke-linejoin:miter;stroke-miterlimit:4;stroke-dasharray:none;stroke-dashoffset:0"
   transform="translate(-163.55,-482.16)"
   d="m 122.8,461.6 c 6.2,8.7 12,17.4 18.4,25.6 5.7,7.4 13.4,12.4 22.2,15.5 13.7,4.7 27.3,3.9 40.9,-1.1 -14.9,-37.9 -42.4,-49.4 -81.5,-40 z"
   stroke-linecap="round"
   id="path48" />
</g>
		<g
   transform="matrix(0.89,0,0,0.89,-11.56,-210.05)"
   id="g54">
<path
   style="opacity:1;fill:#db3939;fill-rule:nonzero;stroke:none;stroke-width:1;stroke-linecap:butt;stroke-linejoin:miter;stroke-miterlimit:4;stroke-dasharray:none;stroke-dashoffset:0"
   transform="translate(-220.8,-46.9)"
   d="m 221.3,72.8 c 13.8,-10.4 22.5,-24.1 24.3,-41.3 1,-10.3 0.2,-20.8 0.2,-31.5 -19.1,11 -35.8,25.5 -42.3,47.9 -4.3,14.8 -5.4,30.6 -8,45.9 5.4,-4.7 10.7,-9.5 16.1,-14 3.1,-2.5 6.5,-4.6 9.7,-7 z"
   stroke-linecap="round"
   id="path52" />
</g>
		<g
   transform="matrix(0.89,0,0,0.89,124.3,-12.56)"
   id="g58">
<path
   style="opacity:1;fill:#db3939;fill-rule:nonzero;stroke:none;stroke-width:1;stroke-linecap:butt;stroke-linejoin:miter;stroke-miterlimit:4;stroke-dasharray:none;stroke-dashoffset:0"
   transform="translate(-373.45,-268.8)"
   d="m 395.1,246.4 c -17,2 -31.1,8.3 -38.9,24.7 -3.2,6.7 -6.5,13.4 -10,20.5 3.5,-0.4 6.5,-1 9.7,-1.1 19.1,-0.8 31,-11 37.6,-28.4 2,-5.4 4.7,-10.5 7.2,-16.1 -1.8,0 -3.7,0.2 -5.6,0.4 z"
   stroke-linecap="round"
   id="path56" />
</g>
		<g
   transform="matrix(0.89,0,0,0.89,-91.62,-111.88)"
   id="g62">
<path
   style="opacity:1;fill:#db3939;fill-rule:nonzero;stroke:none;stroke-width:1;stroke-linecap:butt;stroke-linejoin:miter;stroke-miterlimit:4;stroke-dasharray:none;stroke-dashoffset:0"
   transform="translate(-130.82,-157.2)"
   d="m 131.5,169.3 c 3.4,0.9 6.8,1.9 10,2.8 -1,-13.6 -5.4,-25.4 -21.2,-29.8 0,4.7 -0.4,9.2 0.1,13.6 0.7,6.5 5.6,12.1 11.1,13.4 z"
   stroke-linecap="round"
   id="path60" />
</g>
		<g
   transform="matrix(0.89,0,0,0.89,-45.85,-161.94)"
   id="g66">
<path
   style="opacity:1;fill:#db3939;fill-rule:nonzero;stroke:none;stroke-width:1;stroke-linecap:butt;stroke-linejoin:miter;stroke-miterlimit:4;stroke-dasharray:none;stroke-dashoffset:0"
   transform="translate(-182.27,-100.95)"
   d="m 180.1,118.3 c 10.2,-10.4 11.5,-22 2.5,-34.7 -6.1,7.9 -8.8,16.3 -4.8,26.2 0.9,2.8 1.7,5.7 2.3,8.5 z"
   stroke-linecap="round"
   id="path64" />
</g>
</g>
</g></svg>
