<?xml version="1.0" encoding="UTF-8" standalone="no"?>
<svg
   xmlns:dc="http://purl.org/dc/elements/1.1/"
   xmlns:cc="http://creativecommons.org/ns#"
   xmlns:rdf="http://www.w3.org/1999/02/22-rdf-syntax-ns#"
   xmlns:svg="http://www.w3.org/2000/svg"
   xmlns="http://www.w3.org/2000/svg"
   xmlns:sodipodi="http://sodipodi.sourceforge.net/DTD/sodipodi-0.dtd"
   xmlns:inkscape="http://www.inkscape.org/namespaces/inkscape"
   version="1.1"
   width="312"
   height="50"
   viewBox="57.897129 244.33 312 50"
   xml:space="preserve"
   id="svg13"
   sodipodi:docname="built.svg"><metadata
   id="metadata17"><rdf:RDF><cc:Work
       rdf:about=""><dc:format>image/svg+xml</dc:format><dc:type
         rdf:resource="http://purl.org/dc/dcmitype/StillImage" /></cc:Work></rdf:RDF></metadata><sodipodi:namedview
   pagecolor="#ffffff"
   bordercolor="#666666"
   borderopacity="1"
   objecttolerance="10"
   gridtolerance="10"
   guidetolerance="10"
   inkscape:pageopacity="0"
   inkscape:pageshadow="2"
   inkscape:window-width="640"
   inkscape:window-height="480"
   id="namedview15"
   fit-margin-top="17"
   fit-margin-left="17"
   fit-margin-right="17"
   fit-margin-bottom="17" />
<desc
   id="desc2">Created with Fabric.js 5.3.0</desc>
<defs
   id="defs4">
</defs>
<rect
   width="311.39999"
   height="49.400002"
   fill="#ffffff"
   x="58.297131"
   y="244.73"
   id="rect6" /><g
   transform="matrix(0.17,0,0,0.17,213.5,269)"
   id="base_text">
		<g
   aria-label="Geo Benevolence Foundation"
   id="text10"
   style="font-style:normal;font-weight:normal;font-size:120px;font-family:f41496;white-space:pre;opacity:1;fill:#db3939;fill-rule:nonzero;stroke:none;stroke-width:1;stroke-linecap:butt;stroke-linejoin:miter;stroke-miterlimit:4;stroke-dasharray:none;stroke-dashoffset:0"><path
     d="m -725.59235,-35.835155 q 1.17188,1.113281 1.17188,2.695312 0,2.285156 -2.22656,3.515625 -2.16797,1.171875 -4.10157,-0.585937 -4.98046,-4.570313 -14.29687,-7.089844 -9.25781,-2.519531 -19.62891,-2.519531 -5.33203,0 -10.48828,0.703125 -18.98437,3.867187 -27.07031,15.527343 -2.63672,3.808594 -3.80859,7.851563 -1.17188,3.984375 -1.17188,7.9687498 0,7.26562496 3.22266,14.1210937 3.22265,6.7968755 8.02734,11.9531255 5.625,6.035156 14.17969,10.019531 8.55469,3.984375 19.45312,3.984375 5.85938,0 12.01172,-1.289063 4.62891,-1.171875 9.25781,-3.632812 4.6875,-2.460938 8.37891,-5.742188 3.75,-3.28125 5.44922,-6.914062 1.52344,-3.222656 1.52344,-6.6796877 0,-3.4570313 -1.34766,-5.2148438 -1.28906,-1.8164062 -3.75,-2.69531249 -2.40234,-0.87890625 -5.85937,-1.69921871 -4.21875,-0.9960938 -10.83985,-0.9960938 -3.28125,0 -7.14844,0.234375 -3.86718,0.1757813 -7.26562,0.5273438 -3.39844,0.2929687 -5.27344,0.5859375 l -2.46094,0.35156246 q -0.29296,0.0585938 -0.64453,0.0585938 -1.69922,0 -2.69531,-1.23046866 -0.9375,-1.2890625 -0.9375,-2.7539063 0,-1.2304687 0.70313,-2.2851562 0.76171,-1.1132813 2.40234,-1.3476563 l 2.46094,-0.3515625 q 1.99218,-0.2929687 5.44922,-0.6445312 3.45703,-0.3515625 7.4414,-0.5859375 3.98438,-0.2343754 7.5586,-0.2343754 7.61718,0 13.94531,1.4062504 6.38672,1.40625 10.48828,4.453125 5.39062,4.04296866 5.39062,12.65625 0,12.1289066 -12.94921,21.7968746 -7.85157,5.859375 -17.57813,8.320313 -7.08984,1.464844 -13.76953,1.464844 -6.21094,0 -12.12891,-1.289063 -16.34765,-3.574219 -27.01172,-15.058594 -5.80078,-6.210937 -9.55078,-14.3554684 -3.75,-8.20312504 -3.75,-16.9335937 0,-5.0976559 1.52344,-10.1953129 1.52344,-5.097656 4.86328,-9.960937 9.84375,-14.238281 31.875,-18.691406 0.0586,0 0.11719,0 0.0586,-0.05859 0.11719,-0.05859 5.68359,-0.761719 11.54297,-0.761719 12.01171,0 22.61718,3.105469 10.60547,3.046875 16.58203,8.496094 z"
     id="path19" /><path
     d="m -698.05328,17.83672 q 1.69922,6.09375 6.5625,9.550781 4.92187,3.457031 12.36328,3.457031 9.96094,0 23.14453,-6.503906 0.82031,-0.410156 1.69922,-0.410156 1.52344,0 2.63672,1.054687 1.17187,1.054688 1.17187,2.636719 0,2.519531 -2.10937,3.574219 -6.67969,3.28125 -13.59375,5.273437 -6.91407,1.992188 -13.35938,1.992188 -6.62109,0 -12.36328,-2.460938 -5.68359,-2.460937 -9.72656,-8.203125 -2.28516,-3.222656 -3.51563,-6.855469 -1.23047,-3.632812 -1.23047,-8.144531 0,-1.992187 0.23438,-4.1601562 1.34766,-11.1914063 9.31641,-19.1601558 10.3125,-10.3125 27.1289,-10.3125 6.44531,0 11.3086,2.519531 4.86328,2.460937 6.91406,7.03125 1.11328,2.519531 1.11328,5.332031 0,4.8046875 -2.51953,8.4960938 -2.46094,3.6328125 -7.03125,6.7382812 -12.83203,8.671875 -37.20703,8.671875 -0.35157,0 -0.9375,-0.117187 z m -0.64453,-7.148438 q 0.82031,-0.351562 1.58203,-0.351562 22.08984,0 32.98828,-7.382813 3.04687,-2.05078124 4.6289,-4.1601562 1.58204,-2.1679688 1.58204,-4.9804688 0,-1.640625 -0.76172,-2.6367187 -0.70313,-0.9960938 -1.875,-1.8750003 -3.28125,-2.519531 -9.08203,-2.519531 -7.79297,0 -14.17969,2.929688 -6.38672,2.8710933 -10.3711,8.2617183 -3.92578,5.3320312 -4.51171,12.7148437 z"
     id="path21" /><path
     d="m -608.58063,-23.061718 q 14.58985,0.878906 23.90625,14.4140625 2.51953,3.6328125 3.86719,8.08593751 1.34766,4.39453129 1.34766,9.78515629 0,8.0273437 -3.8086,14.4140627 -3.80859,6.328125 -9.19922,9.785156 -3.45703,2.226563 -7.79296,3.574219 -4.33594,1.289062 -8.96485,1.289062 -8.61328,0 -14.70703,-3.75 -6.03516,-3.808593 -9.72656,-9.433593 -4.98047,-7.734375 -4.98047,-16.5820317 0,-2.34375 0.35156,-4.7460938 1.64063,-11.6601562 9.78516,-19.1015625 8.20312,-7.5 18.51562,-7.910156 0.70313,-0.117188 1.40625,0.175781 z m 21.44532,31.875 q 0,-6.796875 -3.16407,-12.1289062 -3.16406,-5.390625 -8.20312,-8.5546878 -4.98047,-3.222656 -10.48828,-3.574218 -0.46875,0 -0.9375,-0.175782 -5.97657,0.351563 -10.78125,3.691407 -4.80469,3.2812495 -7.61719,8.6718745 -2.75391,5.3320313 -2.75391,11.8945313 0,5.0390622 1.9336,9.1406252 1.99218,4.101562 5.09765,7.03125 3.16407,2.871094 6.5625,4.277344 4.10157,1.640625 8.4375,1.640625 6.03516,0 10.95703,-2.8125 4.98047,-2.871094 7.5586,-6.914063 1.69922,-2.695312 2.51953,-5.800781 0.87891,-3.164063 0.87891,-6.386719 z"
     id="path23" /><path
     d="m -501.52985,-4.9562492 q 5.44922,1.6992187 10.60547,4.74609371 5.15625,3.04687499 8.4961,7.55859379 3.39843,4.5117187 3.39843,10.3710937 0,8.027344 -7.03125,13.886719 -9.60937,8.085937 -27.59765,8.085937 -8.4375,0 -17.92969,-1.933593 -1.17187,-0.292969 -2.10937,-1.289063 -0.87891,-1.054687 -0.9375,-2.34375 l -0.35157,-76.875 q 0,-1.523437 1.05469,-2.578125 1.05469,-1.113281 2.40234,-1.230469 3.86719,-0.351562 7.73438,-0.351562 8.67187,0 16.52344,1.933594 7.85156,1.875 13.65234,5.742187 5.80078,3.808594 8.32031,9.609375 1.34766,3.164063 1.34766,6.210938 0,4.628906 -2.69531,8.261718 -2.69532,3.632813 -6.79688,6.2109378 -4.04297,2.5195312 -8.08594,3.984375 z m -25.66406,-2.7539063 q 0.87891,-0.46875 3.28125,-0.6445312 1.28906,-0.1171875 2.8125,-0.234375 1.58203,-0.1757813 3.39844,-0.4101563 17.63672,-2.34375 23.78906,-9.316406 2.28516,-2.636719 2.28516,-5.390625 0,-1.464844 -0.64453,-2.929688 -1.875,-4.277343 -6.85547,-7.089843 -4.92188,-2.871094 -11.42578,-4.277344 -6.44532,-1.40625 -12.83203,-1.40625 -1.9336,0 -3.98438,0.117187 z m 1.40625,7.08984376 q -0.8789,-0.29296875 -1.40625,-0.52734376 l 0.17578,32.0507815 q 6.85547,1.171875 13.35938,1.171875 15.17578,0 22.73437,-6.328125 4.33594,-3.632813 4.33594,-7.96875 0,-2.929688 -1.875,-5.625 -1.81641,-2.7539065 -5.03906,-4.980469 -10.78125,-7.44140624 -32.28516,-7.79296874 z"
     id="path25" /><path
     d="m -458.99078,17.83672 q 1.69922,6.09375 6.5625,9.550781 4.92187,3.457031 12.36328,3.457031 9.96094,0 23.14453,-6.503906 0.82031,-0.410156 1.69922,-0.410156 1.52344,0 2.63672,1.054687 1.17187,1.054688 1.17187,2.636719 0,2.519531 -2.10937,3.574219 -6.67969,3.28125 -13.59375,5.273437 -6.91407,1.992188 -13.35938,1.992188 -6.62109,0 -12.36328,-2.460938 -5.68359,-2.460937 -9.72656,-8.203125 -2.28516,-3.222656 -3.51563,-6.855469 -1.23047,-3.632812 -1.23047,-8.144531 0,-1.992187 0.23438,-4.1601562 1.34766,-11.1914063 9.31641,-19.1601558 10.3125,-10.3125 27.1289,-10.3125 6.44531,0 11.3086,2.519531 4.86328,2.460937 6.91406,7.03125 1.11328,2.519531 1.11328,5.332031 0,4.8046875 -2.51953,8.4960938 -2.46094,3.6328125 -7.03125,6.7382812 -12.83203,8.671875 -37.20703,8.671875 -0.35157,0 -0.9375,-0.117187 z m -0.64453,-7.148438 q 0.82031,-0.351562 1.58203,-0.351562 22.08984,0 32.98828,-7.382813 3.04687,-2.05078124 4.6289,-4.1601562 1.58204,-2.1679688 1.58204,-4.9804688 0,-1.640625 -0.76172,-2.6367187 -0.70313,-0.9960938 -1.875,-1.8750003 -3.28125,-2.519531 -9.08203,-2.519531 -7.79297,0 -14.17969,2.929688 -6.38672,2.8710933 -10.3711,8.2617183 -3.92578,5.3320312 -4.51171,12.7148437 z"
     id="path27" /><path
     d="m -395.65094,-22.651562 q 1.69922,0 2.8125,1.347657 4.21875,5.097656 6.15234,15.7031245 7.96875,-14.4140625 20.56641,-16.2304685 1.99219,-0.292969 3.92578,-0.292969 7.03125,0 12.42188,3.222656 5.39062,3.222657 8.84765,8.496094 3.45703,5.2734375 4.6875,11.36718751 0.82032,3.92578129 0.82032,8.02734379 0,12.9492187 -8.26172,27.3632817 -1.05469,1.816406 -3.22266,1.816406 -1.81641,0 -3.28125,-1.699219 -1.40625,-1.757812 -0.11719,-3.925781 7.26563,-12.65625 7.26563,-23.6132815 0,-3.28125 -0.64453,-6.3867187 -0.9375,-4.5117188 -3.45703,-8.3789063 -2.46094,-3.8671875 -6.32813,-6.2109375 -3.80859,-2.402344 -8.78906,-2.402344 -1.34766,0 -2.75391,0.175782 -5.80078,0.820312 -9.90234,5.0976558 -4.10156,4.2773437 -6.6211,10.3710937 -2.46093,6.0351563 -3.57421,12.3046875 0,0.761719 0,1.523438 0,8.4375 -0.87891,16.992187 l -0.23438,2.285156 q -0.17578,1.640625 -1.28906,2.460938 -1.11328,0.761719 -2.40234,0.761719 -1.40625,0 -2.63672,-0.878907 -1.17188,-0.878906 -1.23047,-2.636718 -0.11719,-2.636719 -0.11719,-5.15625 0,-8.613282 1.17188,-15.878907 -0.23438,-13.47656224 -2.10938,-20.2148435 -1.8164,-6.6796875 -3.33984,-8.5546875 -1.40625,-1.757812 -1.40625,-3.105469 0,-1.699218 1.23047,-2.695312 1.23047,-1.054688 2.69531,-1.054688 z"
     id="path29" /><path
     d="m -315.3775,17.83672 q 1.69922,6.09375 6.5625,9.550781 4.92187,3.457031 12.36328,3.457031 9.96094,0 23.14453,-6.503906 0.82031,-0.410156 1.69922,-0.410156 1.52344,0 2.63672,1.054687 1.17187,1.054688 1.17187,2.636719 0,2.519531 -2.10937,3.574219 -6.67969,3.28125 -13.59375,5.273437 -6.91406,1.992188 -13.35938,1.992188 -6.62109,0 -12.36328,-2.460938 -5.68359,-2.460937 -9.72656,-8.203125 -2.28516,-3.222656 -3.51563,-6.855469 -1.23046,-3.632812 -1.23046,-8.144531 0,-1.992187 0.23437,-4.1601562 1.34766,-11.1914063 9.31641,-19.1601558 10.3125,-10.3125 27.1289,-10.3125 6.44532,0 11.3086,2.519531 4.86328,2.460937 6.91406,7.03125 1.11328,2.519531 1.11328,5.332031 0,4.8046875 -2.51953,8.4960938 -2.46094,3.6328125 -7.03125,6.7382812 -12.83203,8.671875 -37.20703,8.671875 -0.35156,0 -0.9375,-0.117187 z m -0.64453,-7.148438 q 0.82031,-0.351562 1.58203,-0.351562 22.08984,0 32.98828,-7.382813 3.04687,-2.05078124 4.62891,-4.1601562 1.58203,-2.1679688 1.58203,-4.9804688 0,-1.640625 -0.76172,-2.6367187 -0.70313,-0.9960938 -1.875,-1.8750003 -3.28125,-2.519531 -9.08203,-2.519531 -7.79297,0 -14.17969,2.929688 -6.38672,2.8710933 -10.37109,8.2617183 -3.92579,5.3320312 -4.51172,12.7148437 z"
     id="path31" /><path
     d="m -255.90485,-18.198437 q -0.0586,-0.351562 -0.0586,-0.644531 0,-1.699219 1.23047,-2.636719 1.23047,-0.9375 2.69531,-0.9375 1.28906,0 2.34375,0.761719 1.11328,0.761719 1.28906,2.402344 6.15235,44.121094 12.53907,49.277344 6.91406,-4.863282 17.8125,-48.984375 0.35156,-1.40625 1.34765,-2.050782 1.05469,-0.703125 2.22657,-0.703125 1.46484,0 2.69531,0.9375 1.28906,0.9375 1.28906,2.695313 0,0.46875 -0.11719,0.9375 -8.49609,34.394531 -15.05859,46.171875 -4.86328,8.847656 -10.13672,8.847656 -1.69922,0 -3.45703,-0.9375 -5.625,-2.929687 -9.375,-16.699219 -3.80859,-13.6523435 -7.26563,-38.4375 z"
     id="path33" /><path
     d="m -168.77594,-23.061718 q 14.58984,0.878906 23.90625,14.4140625 2.51953,3.6328125 3.86719,8.08593751 1.34765,4.39453129 1.34765,9.78515629 0,8.0273437 -3.80859,14.4140627 -3.80859,6.328125 -9.19922,9.785156 -3.45703,2.226563 -7.79297,3.574219 -4.33593,1.289062 -8.96484,1.289062 -8.61328,0 -14.70703,-3.75 -6.03516,-3.808593 -9.72656,-9.433593 -4.98047,-7.734375 -4.98047,-16.5820317 0,-2.34375 0.35156,-4.7460938 1.64062,-11.6601562 9.78516,-19.1015625 8.20312,-7.5 18.51562,-7.910156 0.70313,-0.117188 1.40625,0.175781 z m 21.44531,31.875 q 0,-6.796875 -3.16406,-12.1289062 -3.16406,-5.390625 -8.20312,-8.5546878 -4.98047,-3.222656 -10.48829,-3.574218 -0.46875,0 -0.9375,-0.175782 -5.97656,0.351563 -10.78125,3.691407 -4.80468,3.2812495 -7.61718,8.6718745 -2.75391,5.3320313 -2.75391,11.8945313 0,5.0390622 1.93359,9.1406252 1.99219,4.101562 5.09766,7.03125 3.16406,2.871094 6.5625,4.277344 4.10156,1.640625 8.4375,1.640625 6.03516,0 10.95703,-2.8125 4.98047,-2.871094 7.5586,-6.914063 1.69921,-2.695312 2.51953,-5.800781 0.8789,-3.164063 0.8789,-6.386719 z"
     id="path35" /><path
     d="m -122.01813,-48.374218 q 1.46485,0 2.57813,1.230469 1.17187,1.171875 1.05469,2.753906 -0.9961,24.316406 -1.52344,41.1914063 -0.52735,16.8749997 -0.52735,26.3671877 0,8.261719 0.41016,10.898437 0.0586,0.351563 0.0586,0.644532 0,1.757812 -1.23046,2.695312 -1.23047,0.9375 -2.69532,0.9375 -1.23047,0 -2.34375,-0.761719 -1.05468,-0.761718 -1.28906,-2.402343 -0.46875,-2.988282 -0.46875,-12.246094 0,-19.6875002 2.05078,-67.675781 0.0586,-1.523438 1.23047,-2.578125 1.23047,-1.054688 2.69531,-1.054688 z"
     id="path37" /><path
     d="m -98.404846,17.83672 q 1.699219,6.09375 6.5625,9.550781 4.921875,3.457031 12.363281,3.457031 9.960938,0 23.144531,-6.503906 0.820313,-0.410156 1.699219,-0.410156 1.523438,0 2.636719,1.054687 1.171875,1.054688 1.171875,2.636719 0,2.519531 -2.109375,3.574219 -6.679688,3.28125 -13.59375,5.273437 -6.914063,1.992188 -13.359375,1.992188 -6.621094,0 -12.363281,-2.460938 -5.683594,-2.460937 -9.726558,-8.203125 -2.28516,-3.222656 -3.51563,-6.855469 -1.23047,-3.632812 -1.23047,-8.144531 0,-1.992187 0.23438,-4.1601562 1.34765,-11.1914063 9.316403,-19.1601558 10.3125,-10.3125 27.128906,-10.3125 6.445312,0 11.308594,2.519531 4.863281,2.460937 6.914062,7.03125 1.113281,2.519531 1.113281,5.332031 0,4.8046875 -2.519531,8.4960938 -2.460937,3.6328125 -7.03125,6.7382812 -12.832031,8.671875 -37.207031,8.671875 -0.351563,0 -0.9375,-0.117187 z m -0.644531,-7.148438 q 0.820312,-0.351562 1.582031,-0.351562 22.089844,0 32.988281,-7.382813 3.046875,-2.05078124 4.628906,-4.1601562 1.582032,-2.1679688 1.582032,-4.9804688 0,-1.640625 -0.761719,-2.6367187 -0.703125,-0.9960938 -1.875,-1.8750003 -3.28125,-2.519531 -9.082031,-2.519531 -7.792969,0 -14.179688,2.929688 -6.386719,2.8710933 -10.371094,8.2617183 -3.925781,5.3320312 -4.511718,12.7148437 z"
     id="path39" /><path
     d="m -35.065002,-22.651562 q 1.699218,0 2.8125,1.347657 4.21875,5.097656 6.152343,15.7031245 7.96875,-14.4140625 20.5664066,-16.2304685 1.9921875,-0.292969 3.9257812,-0.292969 7.03125,0 12.4218752,3.222656 5.390625,3.222657 8.847656,8.496094 3.457031,5.2734375 4.6875,11.36718751 0.820313,3.92578129 0.820313,8.02734379 0,12.9492187 -8.261719,27.3632817 -1.054688,1.816406 -3.222656,1.816406 -1.816407,0 -3.28125,-1.699219 -1.4062504,-1.757812 -0.117188,-3.925781 7.265625,-12.65625 7.265625,-23.6132815 0,-3.28125 -0.644531,-6.3867187 -0.9375,-4.5117188 -3.457031,-8.3789063 -2.460938,-3.8671875 -6.3281254,-6.2109375 -3.8085938,-2.402344 -8.7890625,-2.402344 -1.3476563,0 -2.7539063,0.175782 -5.8007808,0.820312 -9.9023438,5.0976558 -4.101562,4.2773437 -6.621094,10.3710937 -2.460937,6.0351563 -3.574218,12.3046875 0,0.761719 0,1.523438 0,8.4375 -0.878907,16.992187 l -0.234375,2.285156 q -0.175781,1.640625 -1.289062,2.460938 -1.113281,0.761719 -2.402344,0.761719 -1.40625,0 -2.636719,-0.878907 -1.171875,-0.878906 -1.230468,-2.636718 -0.117188,-2.636719 -0.117188,-5.15625 0,-8.613282 1.171875,-15.878907 -0.234375,-13.47656224 -2.109375,-20.2148435 -1.816406,-6.6796875 -3.339844,-8.5546875 -1.40625,-1.757812 -1.40625,-3.105469 0,-1.699218 1.230469,-2.695312 1.230469,-1.054688 2.695313,-1.054688 z"
     id="path41" /><path
     d="m 44.50531,14.965626 q 0,7.207031 4.160156,11.542969 4.21875,4.335937 12.011719,4.335937 6.738281,0 15.878906,-3.28125 0.644532,-0.234375 1.347657,-0.234375 1.523437,0 2.636718,1.113281 1.171875,1.054688 1.171875,2.578125 0,1.347657 -0.761718,2.34375 -0.761719,0.996094 -1.816407,1.347657 -10.429687,3.808593 -18.515625,3.808593 -8.964843,0 -14.707031,-4.21875 -5.742187,-4.277343 -7.734375,-10.898437 -1.289062,-4.277344 -1.289062,-8.613281 0,-5.9179692 2.34375,-12.070313 2.167968,-5.7421875 6.210937,-10.8398437 4.101563,-5.0976563 9.902344,-8.2617183 5.859375,-3.222657 13.183594,-3.222657 4.804687,0 9.960937,1.582032 1.347656,0.410156 1.933594,1.40625 0.644531,0.9375 0.644531,2.050781 0,1.464844 -0.996094,2.753906 -0.9375,1.230469 -2.578125,1.230469 -0.585937,0 -1.171875,-0.175781 -3.75,-1.113282 -7.324218,-1.113282 -5.625,0 -10.136719,2.4609378 -4.453125,2.4023437 -7.617188,6.328125 -3.164062,3.86718746 -4.863281,8.3789062 -1.875,4.980469 -1.875,9.667969 z"
     id="path43" /><path
     d="m 101.69281,17.83672 q 1.69922,6.09375 6.5625,9.550781 4.92188,3.457031 12.36328,3.457031 9.96094,0 23.14453,-6.503906 0.82032,-0.410156 1.69922,-0.410156 1.52344,0 2.63672,1.054687 1.17188,1.054688 1.17188,2.636719 0,2.519531 -2.10938,3.574219 -6.67969,3.28125 -13.59375,5.273437 -6.91406,1.992188 -13.35937,1.992188 -6.6211,0 -12.36329,-2.460938 -5.68359,-2.460937 -9.726559,-8.203125 -2.285156,-3.222656 -3.515625,-6.855469 -1.230468,-3.632812 -1.230468,-8.144531 0,-1.992187 0.234375,-4.1601562 1.347656,-11.1914063 9.316407,-19.1601558 10.3125,-10.3125 27.12891,-10.3125 6.44531,0 11.30859,2.519531 4.86328,2.460937 6.91406,7.03125 1.11328,2.519531 1.11328,5.332031 0,4.8046875 -2.51953,8.4960938 -2.46094,3.6328125 -7.03125,6.7382812 -12.83203,8.671875 -37.20703,8.671875 -0.35156,0 -0.9375,-0.117187 z m -0.64453,-7.148438 q 0.82031,-0.351562 1.58203,-0.351562 22.08984,0 32.98828,-7.382813 3.04688,-2.05078124 4.62891,-4.1601562 1.58203,-2.1679688 1.58203,-4.9804688 0,-1.640625 -0.76172,-2.6367187 -0.70312,-0.9960938 -1.875,-1.8750003 -3.28125,-2.519531 -9.08203,-2.519531 -7.79297,0 -14.17969,2.929688 -6.38672,2.8710933 -10.37109,8.2617183 -3.92578,5.3320312 -4.51172,12.7148437 z"
     id="path45" /><path
     d="m 202.76703,-38.647655 q 0.9375,6.796875 1.52344,14.003906 0.58593,7.148437 0.76172,14.7656248 h 0.0586 l 42.59766,0.2929687 q 1.8164,0 2.69531,1.2304688 0.9375,1.171875 0.9375,2.578125 0,1.4648437 -0.9375,2.6367187 -0.87891,1.171875 -2.69531,1.171875 -0.0586,0 -0.0586,0 l -42.53906,-0.2929687 q 0,3.984375 -0.29297,9.140625 -0.23437,5.0976567 -0.64453,10.4296877 -0.35156,5.332031 -0.87891,9.960937 -0.52734,4.628907 -1.05468,7.675782 l -0.76172,4.101562 q -0.29297,1.40625 -1.40625,2.226563 -1.11328,0.820312 -2.40235,0.820312 -1.58203,0 -2.8125,-1.289062 -1.17187,-1.289063 -0.8789,-3.105469 l 0.76172,-4.101563 q 1.40625,-7.792968 2.05078,-16.992187 0.70312,-9.199219 0.70312,-18.7500002 0,-10.7226558 -0.82031,-21.2109378 -0.76172,-10.546875 -2.16797,-19.335937 -0.0586,-0.292969 -0.0586,-0.585938 0,-1.640625 1.11328,-2.753906 1.17187,-1.113281 2.69531,-1.113281 0.35156,0 0.64453,0.05859 l 4.39453,0.761718 q 6.97266,1.230469 14.88282,1.992188 7.91015,0.703125 15.9375,0.703125 12.89062,0 17.69531,-2.753906 0.8789,-0.527344 1.875,-0.527344 1.52344,0 2.63672,1.113281 1.17187,1.054688 1.17187,2.695313 0,0.46875 -0.11719,0.996093 -1.17187,4.394532 -15.46875,5.859375 -3.16406,0.351563 -7.38281,0.351563 -2.87109,0 -7.03125,-0.234375 -4.10156,-0.292969 -8.67187,-0.644531 -4.51172,-0.410157 -8.78907,-0.878907 -4.21875,-0.527343 -7.26562,-0.996093 z"
     id="path47" /><path
     d="m 299.27094,-23.061718 q 14.58984,0.878906 23.90625,14.4140625 2.51953,3.6328125 3.86718,8.08593751 1.34766,4.39453129 1.34766,9.78515629 0,8.0273437 -3.80859,14.4140627 -3.8086,6.328125 -9.19922,9.785156 -3.45703,2.226563 -7.79297,3.574219 -4.33594,1.289062 -8.96485,1.289062 -8.61328,0 -14.70703,-3.75 -6.03515,-3.808593 -9.72656,-9.433593 -4.98047,-7.734375 -4.98047,-16.5820317 0,-2.34375 0.35156,-4.7460938 1.64063,-11.6601562 9.78516,-19.1015625 8.20313,-7.5 18.51563,-7.910156 0.70312,-0.117188 1.40625,0.175781 z m 21.44531,31.875 q 0,-6.796875 -3.16406,-12.1289062 -3.16407,-5.390625 -8.20313,-8.5546878 -4.98047,-3.222656 -10.48828,-3.574218 -0.46875,0 -0.9375,-0.175782 -5.97656,0.351563 -10.78125,3.691407 -4.80469,3.2812495 -7.61719,8.6718745 -2.7539,5.3320313 -2.7539,11.8945313 0,5.0390622 1.93359,9.1406252 1.99219,4.101562 5.09766,7.03125 3.16406,2.871094 6.5625,4.277344 4.10156,1.640625 8.4375,1.640625 6.03515,0 10.95703,-2.8125 4.98047,-2.871094 7.55859,-6.914063 1.69922,-2.695312 2.51953,-5.800781 0.87891,-3.164063 0.87891,-6.386719 z"
     id="path49" /><path
     d="m 381.94672,-17.026562 q 0.82031,-3.28125 3.80859,-3.28125 1.40625,0 2.46094,1.054688 1.11328,1.054687 1.28906,2.402344 0.52734,5.332031 0.52734,10.195312 0,6.85546876 -1.05468,12.8320313 0.35156,20.2148437 3.63281,26.3085937 0.41016,0.703125 0.46875,0.761719 1.93359,1.054687 1.93359,3.398437 0,2.226563 -1.875,3.222657 -1.875,0.996093 -4.21875,-0.234375 -4.39453,-2.285157 -6.32812,-15.351563 -1.9336,3.339844 -5.15625,6.738281 -3.22266,3.398438 -7.38281,5.683594 -4.10157,2.226563 -8.90625,2.226563 -3.10547,0 -6.15235,-1.113282 -7.32422,-2.695312 -11.13281,-11.015625 -3.80859,-8.378906 -3.80859,-19.160156 0,-11.484375 3.98437,-26.367187 0.35156,-1.289063 1.46484,-1.992188 1.11329,-0.761719 2.34375,-0.761719 1.58204,0 2.8711,1.40625 1.28906,1.40625 0.70312,3.339844 -3.80859,13.7109375 -3.80859,24.140625 0,7.910156 2.16797,13.945313 1.52344,4.21875 4.39453,7.148437 2.87109,2.871094 6.85547,2.871094 3.39844,0 7.03125,-2.34375 10.07812,-6.445313 13.30078,-23.496094 0,-1.171875 -0.0586,-2.4023437 0,-1.2890625 0,-2.57812504 0,-2.51953126 0.0586,-5.21484376 0.0586,-2.7539062 0.17578,-5.6249995 z"
     id="path51" /><path
     d="m 409.2514,-22.651562 q 1.69922,0 2.8125,1.347657 4.21875,5.097656 6.15235,15.7031245 7.96875,-14.4140625 20.5664,-16.2304685 1.99219,-0.292969 3.92579,-0.292969 7.03125,0 12.42187,3.222656 5.39063,3.222657 8.84766,8.496094 3.45703,5.2734375 4.6875,11.36718751 0.82031,3.92578129 0.82031,8.02734379 0,12.9492187 -8.26172,27.3632817 -1.05469,1.816406 -3.22266,1.816406 -1.8164,0 -3.28125,-1.699219 -1.40625,-1.757812 -0.11718,-3.925781 7.26562,-12.65625 7.26562,-23.6132815 0,-3.28125 -0.64453,-6.3867187 -0.9375,-4.5117188 -3.45703,-8.3789063 -2.46094,-3.8671875 -6.32813,-6.2109375 -3.80859,-2.402344 -8.78906,-2.402344 -1.34765,0 -2.7539,0.175782 -5.80079,0.820312 -9.90235,5.0976558 -4.10156,4.2773437 -6.62109,10.3710937 -2.46094,6.0351563 -3.57422,12.3046875 0,0.761719 0,1.523438 0,8.4375 -0.87891,16.992187 l -0.23437,2.285156 q -0.17578,1.640625 -1.28906,2.460938 -1.11329,0.761719 -2.40235,0.761719 -1.40625,0 -2.63672,-0.878907 -1.17187,-0.878906 -1.23047,-2.636718 -0.11718,-2.636719 -0.11718,-5.15625 0,-8.613282 1.17187,-15.878907 -0.23437,-13.47656224 -2.10937,-20.2148435 -1.81641,-6.6796875 -3.33985,-8.5546875 -1.40625,-1.757812 -1.40625,-3.105469 0,-1.699218 1.23047,-2.695312 1.23047,-1.054688 2.69531,-1.054688 z"
     id="path53" /><path
     d="m 538.56781,12.739063 q 0,4.335938 0.41016,9.433594 0.41015,5.039063 0.41015,8.90625 0,2.285156 -0.9375,3.984375 -0.8789,1.640625 -3.22265,1.640625 -1.58203,0 -2.57813,-1.230469 -0.99609,-1.230468 -1.11328,-2.8125 -0.11719,-1.523437 -0.23437,-3.574218 -0.11719,-2.050782 -0.23438,-4.570313 -8.14453,12.890625 -20.80078,12.890625 -8.49609,0 -15.05859,-3.75 -6.50391,-3.75 -10.25391,-10.371094 -3.69141,-6.679687 -3.69141,-15.3515622 0,-6.5625 2.22657,-12.7734375 2.22656,-6.2695313 6.03515,-10.8398433 6.21094,-7.5 15.9961,-7.5 1.05468,0 2.16796,0.05859 11.25,0.878907 22.91016,13.066407 0,-3.632813 0,-8.496094 0,-4.921875 0.0586,-11.015625 l 0.11719,-14.296875 q 0,-1.816406 1.17188,-2.753906 1.23047,-0.9375 2.63672,-0.9375 1.46484,0 2.63671,0.9375 1.17188,0.9375 1.17188,2.8125 l -0.11719,14.355468 q -0.0586,7.910157 -0.11719,14.414063 0,6.4453123 0,11.4843748 0,6.3867187 0.0586,10.1953125 0.35156,1.0546875 0.35156,3.6914067 0,0.585937 0,1.171875 0,0.585937 0,1.230468 z m -28.24219,17.050782 q 12.01172,0 18.98438,-19.160157 0.46875,-1.2304685 0.76172,-2.1093747 0.29297,-0.8789063 0.52734,-1.4648438 V 1.7234383 q -12.71484,-16.3476563 -23.73047,-17.2851563 -0.52734,-0.05859 -1.05469,-0.05859 -5.15625,0 -8.96484,3.457032 -3.80859,3.398437 -5.85937,8.7304683 -2.05079,5.2734375 -2.05079,11.015625 0,9.8437497 5.74219,16.0546877 5.74219,6.152344 15.64453,6.152344 z"
     id="path55" /><path
     d="m 602.90375,-3.0226555 q 0.17578,0.6445313 0.17578,1.3476563 0,1.34765621 -0.52734,3.1054687 -0.87891,9.2578125 -0.87891,16.5234375 0,10.136719 1.69922,16.464844 0.17578,0.585937 0.17578,1.113281 0,1.640625 -1.28906,2.578125 -1.23047,0.996094 -2.69532,0.996094 -1.11328,0 -2.10937,-0.644531 -0.99609,-0.644532 -1.40625,-2.109375 -1.81641,-6.738282 -1.93359,-17.109375 -5.56641,8.964843 -11.95313,14.121093 -3.86719,3.105469 -7.96875,3.515625 -2.46094,0.703125 -4.80469,0.703125 -3.33984,0 -6.09375,-1.230468 -2.7539,-1.230469 -4.74609,-3.105469 -3.57422,-3.339844 -5.56641,-8.613281 -1.93359,-5.332032 -1.93359,-12.304688 0,-8.9648437 4.16016,-17.109375 6.09375,-11.953125 18.51562,-15.9375 4.74609,-1.582031 9.14063,-1.582031 5.50781,0 10.37109,2.578125 8.49609,4.511719 9.66797,16.6992185 z m -7.61719,0.5273438 q -0.52734,-5.625 -3.69141,-8.9062503 -3.10546,-3.28125 -8.49609,-3.28125 -3.22266,0 -7.03125,1.230469 -9.43359,2.988281 -13.76953,11.5429688 -3.63281,7.2070312 -3.63281,14.3554692 0,5.039062 1.34765,9.023437 1.34766,3.984375 3.45703,5.976563 2.63672,2.460937 5.97657,2.460937 1.11328,0 2.10937,-0.234375 1.05469,-0.292969 2.34375,-0.410156 0.9961,-0.117188 3.92578,-2.402344 2.92969,-2.34375 6.21094,-6.621094 3.33984,-4.277343 6.26953,-9.609375 2.92969,-5.332031 4.7461,-10.72265599 0.0586,-0.5859375 0.11718,-1.17187501 0.0586,-0.6445312 0.11719,-1.2304687 z"
     id="path57" /><path
     d="m 636.24359,35.825001 q 0,1.582031 -1.17187,2.695312 -1.17188,1.113282 -2.69532,1.113282 -0.9375,0 -1.75781,-0.46875 -7.55859,-4.042969 -9.14062,-22.089844 -0.35157,-3.925781 -0.52735,-8.4375002 -0.17578,-4.5703125 -0.17578,-9.7851563 0,-5.0390625 0.17578,-11.0156245 -2.87109,0 -5.74218,0 -2.8711,-0.05859 -5.80079,-0.05859 -1.52343,0 -2.69531,-1.171875 -1.11328,-1.230469 -1.11328,-2.753906 0,-1.40625 1.11328,-2.519532 1.17188,-1.171875 2.69531,-1.171875 l 11.77735,0.05859 q 0.0586,-1.757812 0.17578,-5.390625 0.11719,-3.632812 0.23437,-7.734375 0.11719,-4.101562 0.11719,-7.207031 0,-0.9375 -0.0586,-1.699219 0,-0.761719 0,-1.40625 0,-1.757812 1.17187,-2.695312 1.23047,-0.9375 2.63672,-0.9375 1.40625,0 2.57813,0.878906 1.17187,0.878906 1.23047,2.695312 0.0586,1.171875 0.0586,2.988282 0,3.222656 -0.11719,7.324218 -0.11719,4.101563 -0.23437,7.792969 -0.11719,3.632813 -0.17578,5.449219 l 8.84765,0.05859 q 1.81641,0 2.75391,1.230468 0.9375,1.230469 0.9375,2.636719 0,1.40625 -0.9375,2.578125 -0.87891,1.171875 -2.69531,1.171875 -0.0586,0 -0.0586,0 -2.28515,0 -4.57031,0 -2.22656,-0.05859 -4.51172,-0.05859 -0.11719,5.2734378 -0.11719,9.9609378 0,21.2109372 2.8711,29.8242192 1.34765,3.925781 2.8125,4.6875 0.8789,0.46875 1.46484,1.40625 0.64453,0.9375 0.64453,2.050781 z"
     id="path59" /><path
     d="m 653.17719,-33.491405 q 0,-2.167969 1.28906,-4.160157 1.34765,-2.050781 3.28125,-3.28125 1.93359,-1.289062 3.80859,-1.289062 2.75391,0 4.62891,2.34375 1.93359,2.285156 1.93359,4.570312 0,2.167969 -1.34765,3.984375 -1.34766,1.816407 -3.63282,2.636719 -2.57812,1.289063 -4.57031,1.289063 -2.16797,0 -3.80859,-1.757813 -1.58203,-1.816406 -1.58203,-4.335937 z m 9.49218,61.640625 q -0.17578,4.6875 -1.28906,7.5 -1.11328,2.753906 -3.86719,2.753906 -1.52343,0 -2.69531,-1.113281 -1.17187,-1.113282 -1.17187,-2.753907 0,-0.761718 0.29296,-1.523437 0.52735,-1.230469 0.82032,-4.863281 0.35156,-3.691407 0.52734,-8.671875 0.17578,-4.980469 0.23438,-10.2539067 0.11718,-5.3320313 0.11718,-9.90234379 0,-4.57031251 0,-7.26562501 0,-4.9804685 -0.0586,-9.5507815 0,-1.875 1.17187,-2.8125 1.23047,-0.9375 2.69532,-0.9375 1.40625,0 2.51953,0.9375 1.17187,0.878907 1.17187,2.695313 0.0586,3.105469 0.0586,6.09375 0.0586,2.988281 0.0586,5.8593748 0,9.5507812 -0.11719,17.2851562 -0.0586,7.734375 -0.46875,16.523438 z"
     id="path61" /><path
     d="m 709.89594,-23.061718 q 14.58984,0.878906 23.90625,14.4140625 2.51953,3.6328125 3.86718,8.08593751 1.34766,4.39453129 1.34766,9.78515629 0,8.0273437 -3.80859,14.4140627 -3.8086,6.328125 -9.19922,9.785156 -3.45703,2.226563 -7.79297,3.574219 -4.33594,1.289062 -8.96485,1.289062 -8.61328,0 -14.70703,-3.75 -6.03515,-3.808593 -9.72656,-9.433593 -4.98047,-7.734375 -4.98047,-16.5820317 0,-2.34375 0.35156,-4.7460938 1.64063,-11.6601562 9.78516,-19.1015625 8.20313,-7.5 18.51563,-7.910156 0.70312,-0.117188 1.40625,0.175781 z m 21.44531,31.875 q 0,-6.796875 -3.16406,-12.1289062 -3.16407,-5.390625 -8.20313,-8.5546878 -4.98047,-3.222656 -10.48828,-3.574218 -0.46875,0 -0.9375,-0.175782 -5.97656,0.351563 -10.78125,3.691407 -4.80469,3.2812495 -7.61719,8.6718745 -2.7539,5.3320313 -2.7539,11.8945313 0,5.0390622 1.93359,9.1406252 1.99219,4.101562 5.09766,7.03125 3.16406,2.871094 6.5625,4.277344 4.10156,1.640625 8.4375,1.640625 6.03515,0 10.95703,-2.8125 4.98047,-2.871094 7.55859,-6.914063 1.69922,-2.695312 2.51953,-5.800781 0.87891,-3.164063 0.87891,-6.386719 z"
     id="path63" /><path
     d="m 754.60297,-22.651562 q 1.69922,0 2.8125,1.347657 4.21875,5.097656 6.15234,15.7031245 7.96875,-14.4140625 20.56641,-16.2304685 1.99218,-0.292969 3.92578,-0.292969 7.03125,0 12.42187,3.222656 5.39063,3.222657 8.84766,8.496094 3.45703,5.2734375 4.6875,11.36718751 0.82031,3.92578129 0.82031,8.02734379 0,12.9492187 -8.26172,27.3632817 -1.05468,1.816406 -3.22265,1.816406 -1.81641,0 -3.28125,-1.699219 -1.40625,-1.757812 -0.11719,-3.925781 7.26562,-12.65625 7.26562,-23.6132815 0,-3.28125 -0.64453,-6.3867187 -0.9375,-4.5117188 -3.45703,-8.3789063 -2.46094,-3.8671875 -6.32812,-6.2109375 -3.8086,-2.402344 -8.78907,-2.402344 -1.34765,0 -2.7539,0.175782 -5.80078,0.820312 -9.90235,5.0976558 -4.10156,4.2773437 -6.62109,10.3710937 -2.46094,6.0351563 -3.57422,12.3046875 0,0.761719 0,1.523438 0,8.4375 -0.8789,16.992187 l -0.23438,2.285156 q -0.17578,1.640625 -1.28906,2.460938 -1.11328,0.761719 -2.40235,0.761719 -1.40625,0 -2.63671,-0.878907 -1.17188,-0.878906 -1.23047,-2.636718 -0.11719,-2.636719 -0.11719,-5.15625 0,-8.613282 1.17187,-15.878907 -0.23437,-13.47656224 -2.10937,-20.2148435 -1.81641,-6.6796875 -3.33984,-8.5546875 -1.40625,-1.757812 -1.40625,-3.105469 0,-1.699218 1.23046,-2.695312 1.23047,-1.054688 2.69532,-1.054688 z"
     id="path65" /></g>
</g></svg>
